# xmcd
#
# Track frame offsets:
#	150
#	15060
#	25117
#	43477
#	60355
#	74377
#	92330
#	99070
#	108622
#	119047
#	131852
#	144937
#	157580
#	173220
#	184392
#	203342
#
# Disc length: 2887
#
# Revision: 1
# Processed by: cddbd v1.5.1PL0 Copyright (c) Steve Scherf et al.
# Submitted via: CDex 1.50
# Normalized: r0:DSETVAR1
#
DISCID=c90b4510
DTITLE=Various Artist - Die Geschichte der Volksmusik Folge 5 [CD 1)
DYEAR=1995
DGENRE=Country
TTITLE0=Tony Marshall - Schöne Maid
TTITLE1=Freddy Quinn - Du, du, liegst mir im Herzen
TTITLE2=Nina and Mike - Fahrende Musikanten
TTITLE3=Henry Arland - Herzklopfen
TTITLE4=Fischer Chöre - Der Natur auf der Spur
TTITLE5=Rene Kollo - Der Mond ist aufgegangen
TTITLE6=Königsseer Dorfmusikanten - Das Echo vom Königssee
TTITLE7=Vico Torriani - Zwei Spuren im Schnee
TTITLE8=Original Alpenland Quintett - Frau Maier
TTITLE9=Andreas Hauff - Sag Dankeschön mit roten Rosen
TTITLE10=Wolfgang Lindner and seine Stadlmusikanten - Guten Morgen
TTITLE11=Fred Bertelmann - Der lachende Vagabund
TTITLE12=Zillertaler Schürzenjäger - Zillertaler Hochzeitsmarsch
TTITLE13=Original Lechtaler Buam - Schenkt man sich Rosen in Tirol
TTITLE14=Karl Moik - Einer hat immer das Bummerl
TTITLE15=Heinz Gamper - Der dritte Mann
EXTD=YEAR: 1995
EXTT0=
EXTT1=
EXTT2=
EXTT3=
EXTT4=
EXTT5=
EXTT6=
EXTT7=
EXTT8=
EXTT9=
EXTT10=
EXTT11=
EXTT12=
EXTT13=
EXTT14=
EXTT15=
PLAYORDER=
